<?xml version="1.0" standalone="no"?>
<!DOCTYPE svg PUBLIC "-//W3C//DTD SVG 20010904//EN"
 "http://www.w3.org/TR/2001/REC-SVG-20010904/DTD/svg10.dtd">
<svg version="1.0" xmlns="http://www.w3.org/2000/svg"
 width="512.000000pt" height="512.000000pt" viewBox="0 0 512.000000 512.000000"
 preserveAspectRatio="xMidYMid meet">
<metadata>
Created by potrace 1.14, written by Peter Selinger 2001-2017
</metadata>
<g transform="translate(0.000000,512.000000) scale(0.100000,-0.100000)"
fill="#000000" stroke="none">
<path d="M2815 4779 c-400 -73 -739 -327 -920 -689 -20 -41 -39 -77 -41 -79
-2 -2 -17 9 -35 23 -118 100 -352 150 -519 110 -218 -51 -398 -216 -469 -429
-27 -80 -36 -226 -19 -315 5 -30 10 -63 11 -72 1 -10 5 -18 8 -18 4 0 11 -10
14 -22 12 -41 50 -113 65 -125 13 -11 13 -12 0 -13 -11 -1 -10 -3 3 -9 15 -6
11 -12 -30 -41 -79 -56 -142 -129 -183 -215 -49 -102 -60 -158 -54 -270 7
-137 8 -153 17 -148 4 2 7 0 7 -6 0 -5 3 -17 7 -27 5 -13 3 -15 -7 -9 -9 5
-11 4 -6 -4 4 -6 12 -8 18 -5 7 5 9 -1 5 -15 -3 -13 -3 -20 0 -17 6 6 43 -37
43 -51 0 -5 11 -20 25 -33 13 -12 22 -27 19 -31 -3 -5 -2 -9 3 -9 4 0 24 -15
43 -33 45 -41 105 -79 150 -97 50 -19 51 -21 30 -64 -39 -79 -41 -127 -37
-866 2 -393 6 -725 9 -737 2 -12 13 -31 23 -43 10 -11 14 -20 9 -20 -5 0 2 -7
14 -16 12 -8 19 -20 16 -26 -4 -6 -2 -8 4 -4 6 3 17 -1 26 -9 8 -9 18 -16 21
-15 24 1 35 -1 32 -7 -3 -5 105 -7 239 -6 183 1 242 -2 237 -10 -4 -7 1 -6 10
2 14 11 20 11 34 0 9 -8 14 -9 10 -2 -10 16 132 15 152 -1 11 -8 13 -8 8 0 -5
9 90 12 373 12 283 0 378 -3 373 -12 -4 -6 1 -5 10 3 14 11 20 11 34 0 9 -8
14 -9 10 -2 -10 16 132 15 152 -1 11 -8 13 -8 8 0 -5 9 90 12 373 12 283 0
378 -3 373 -12 -4 -6 1 -5 10 3 14 11 20 11 34 0 9 -8 14 -9 10 -2 -10 16 132
15 152 -1 11 -8 13 -8 8 1 -5 8 31 12 135 13 181 3 177 3 172 12 -3 4 -1 8 5
8 5 0 23 11 39 25 16 13 32 22 35 19 3 -3 4 3 3 13 0 10 4 17 11 16 8 -2 10 4
6 14 -4 10 -2 14 4 10 7 -5 9 0 6 12 -3 10 0 22 6 25 7 5 11 227 11 714 0 389
2 719 4 735 2 15 -1 27 -7 27 -6 0 -2 9 8 20 10 11 24 20 30 20 7 0 18 7 25
15 7 9 22 13 34 10 12 -3 16 -2 9 1 -8 3 9 27 45 64 79 82 101 108 94 114 -3
3 0 6 7 6 7 0 9 5 6 10 -3 6 -1 10 4 10 6 0 11 3 10 8 -3 17 14 51 22 46 5 -3
6 1 3 9 -3 8 2 39 10 67 20 67 15 224 -9 295 -41 121 -137 250 -224 301 -31
18 -33 28 -14 74 6 14 16 42 24 63 7 20 16 37 20 37 3 0 6 8 6 18 0 32 3 43
11 39 4 -3 8 7 8 21 2 29 10 82 20 122 3 14 7 93 9 175 3 155 -13 281 -51 400
-109 341 -341 614 -651 766 -59 29 -117 56 -128 60 -39 15 -151 47 -186 53
-19 3 -45 8 -59 11 -14 4 -92 8 -175 10 -114 2 -174 -2 -250 -16z"/>
<path d="M834 2166 c1 -8 5 -18 8 -22 4 -3 5 1 4 10 -1 8 -5 18 -8 22 -4 3 -5
-1 -4 -10z"/>
<path d="M4330 2059 c0 -5 5 -7 10 -4 6 3 10 8 10 11 0 2 -4 4 -10 4 -5 0 -10
-5 -10 -11z"/>
<path d="M1035 331 c-3 -5 -2 -12 3 -15 5 -3 9 1 9 9 0 17 -3 19 -12 6z"/>
<path d="M3970 299 c0 -5 5 -7 10 -4 6 3 10 8 10 11 0 2 -4 4 -10 4 -5 0 -10
-5 -10 -11z"/>
<path d="M1114 289 c-3 -6 -2 -15 3 -20 5 -5 9 -1 9 11 0 23 -2 24 -12 9z"/>
<path d="M1075 280 c3 -5 8 -10 11 -10 2 0 4 5 4 10 0 6 -5 10 -11 10 -5 0 -7
-4 -4 -10z"/>
<path d="M3839 273 c-13 -16 -12 -17 4 -4 16 13 21 21 13 21 -2 0 -10 -8 -17
-17z"/>
<path d="M3900 286 c0 -2 8 -10 18 -17 15 -13 16 -12 3 4 -13 16 -21 21 -21
13z"/>
</g>
</svg>
